Coordinates
version=1
nRows=8
nColumns=60
inDegrees=yes

Units are S.I. units (second, meters, Newtons, ...)
If the header above contains a line with 'inDegrees', this indicates whether rotational values are in degrees (yes) or radians (no).

endheader
time	pelvis_tilt	pelvis_list	pelvis_rotation	pelvis_tx	pelvis_ty	pelvis_tz	hip_flexion_r	hip_adduction_r	hip_rotation_r	knee_angle_r_beta	knee_angle_r	ankle_angle_r	subtalar_angle_r	mtp_angle_r	hip_flexion_l	hip_adduction_l	hip_rotation_l	knee_angle_l_beta	knee_angle_l	ankle_angle_l	subtalar_angle_l	mtp_angle_l	L5_S1_Flex_Ext	L5_S1_Lat_Bending	L5_S1_axial_rotation	L4_L5_Flex_Ext	L4_L5_Lat_Bending	L4_L5_axial_rotation	L3_L4_Flex_Ext	L3_L4_Lat_Bending	L3_L4_axial_rotation	L2_L3_Flex_Ext	L2_L3_Lat_Bending	L2_L3_axial_rotation	L1_L2_Flex_Ext	L1_L2_Lat_Bending	L1_L2_axial_rotation	L1_T12_Flex_Ext	L1_T12_Lat_Bending	L1_T12_axial_rotation	Abs_r3	Abs_r2	Abs_r1	Abs_t1	Abs_t2	arm_flex_r	arm_add_r	arm_rot_r	elbow_flex_r	pro_sup_r	wrist_flex_r	wrist_dev_r	arm_flex_l	arm_add_l	arm_rot_l	elbow_flex_l	pro_sup_l	wrist_flex_l	wrist_dev_l
    129.48000000	      0.31174875	     -2.16211700	     92.61548748	      0.39382877	      0.91511174	      0.36654916	     21.79164753	     -5.81175315	      0.90119622	      0.37190433	    -21.30854837	      4.10755587	      0.00000000	      0.00000000	     21.73682303	     -4.54740972	     -0.05208635	      0.32984036	    -18.89846054	      4.44187727	      0.00000000	      0.00000000	    -10.39741648	      0.26560776	      0.08992936	    -19.30904215	      0.35325832	      0.09554995	    -17.08191554	      0.64579871	      0.09554995	    -11.88320730	      0.64579871	      0.07868819	     -9.65504095	      0.54162735	      0.07306761	     -5.94108378	      0.41142642	      0.06744702	    -74.26770619	      3.00460811	      0.50016014	      0.00000000	      0.00000000	     57.56207050	    -23.31602563	     19.51859960	     51.87170332	     70.55040551	      7.90207078	     -0.55341696	     63.67097908	    -18.21935177	     28.54418461	     44.95129600	     66.67114149	     10.84324765	      2.33079050
    129.49000000	      0.28148624	     -2.56810587	     92.66722585	      0.39362807	      0.91384188	      0.36852999	     22.55696747	     -5.88116068	      1.00284454	      0.37813777	    -21.66569831	      4.11097983	      0.00000000	      0.00000000	     22.46620745	     -4.46193611	      0.08324368	      0.33495690	    -19.19161692	      4.39080802	      0.00000000	      0.00000000	    -10.45439987	      0.27029412	      0.09523702	    -19.41486601	      0.35949119	      0.10118934	    -17.17553355	      0.65719313	      0.10118934	    -11.94833362	      0.65719313	      0.08333240	     -9.70795572	      0.55118378	      0.07738008	     -5.97364409	      0.41868560	      0.07142777	    -74.67473286	      3.05762119	      0.52967976	      0.00000000	      0.00000000	     58.97447594	    -23.19753681	     19.89329188	     50.97491988	     70.16705536	      7.96543798	     -0.78587663	     65.24391193	    -17.97484931	     29.61321961	     43.73873884	     65.90635182	     11.19577776	      1.58776849
    129.50000000	      0.25138950	     -3.02507691	     92.73741611	      0.39336361	      0.91244530	      0.37051044	     23.40429065	     -5.98187426	      0.96959571	      0.38575855	    -22.10233676	      4.09816556	      0.00000000	      0.00000000	     23.30249621	     -4.37082054	      0.15476760	      0.34113981	    -19.54587140	      4.31806509	      0.00000000	      0.00000000	    -10.50116931	      0.27466698	      0.08927651	    -19.50172152	      0.36530708	      0.09485629	    -17.25237106	      0.66782529	      0.09485629	    -12.00178640	      0.66782529	      0.07811694	     -9.75138582	      0.56010090	      0.07253716	     -6.00036814	      0.42545915	      0.06695738	    -75.00880225	      3.10708778	      0.49652915	      0.00000000	      0.00000000	     60.35300381	    -22.98984420	     20.15428545	     50.09615184	     69.95851131	      8.01159720	     -0.87757536	     66.68067614	    -17.71377334	     30.29270288	     42.69019392	     65.48426356	     11.48935087	      1.19514397
    129.51000000	      0.21115208	     -3.38442292	     92.81926460	      0.39306564	      0.91121954	      0.37240740	     24.14129043	     -6.09277549	      0.98139953	      0.39335723	    -22.53770930	      4.00904528	      0.00000000	      0.00000000	     24.02681427	     -4.26297100	      0.22086802	      0.34747613	    -19.90891577	      4.20592304	      0.00000000	      0.00000000	    -10.57204945	      0.28054339	      0.08144807	    -19.63335303	      0.37312271	      0.08653858	    -17.36882004	      0.68211320	      0.08653858	    -12.08279532	      0.68211320	      0.07126707	     -9.81720512	      0.57208409	      0.06617656	     -6.04086906	      0.43456172	      0.06108606	    -75.51509201	      3.17356297	      0.45298976	      0.00000000	      0.00000000	     61.67437377	    -22.86886220	     20.23005185	     49.58634760	     69.89429135	      8.03114385	     -0.88364740	     67.98053761	    -17.52247302	     30.59667200	     42.10858568	     65.36575215	     11.63293495	      1.10091621
    129.52000000	      0.17684559	     -3.90611157	     92.86824806	      0.39286509	      0.90968754	      0.37436175	     25.07892238	     -6.18343976	      0.95544132	      0.40124116	    -22.98942515	      4.03357946	      0.00000000	      0.00000000	     24.93878382	     -4.17426418	      0.23475625	      0.35432077	    -20.30108444	      4.22242162	      0.00000000	      0.00000000	    -10.60147179	      0.28097013	      0.07412389	    -19.68799327	      0.37369028	      0.07875664	    -17.41715801	      0.68315078	      0.07875664	    -12.11642211	      0.68315078	      0.06485841	     -9.84452671	      0.57295429	      0.06022566	     -6.05768098	      0.43522274	      0.05559292	    -75.72525287	      3.17839034	      0.41225486	      0.00000000	      0.00000000	     63.08622258	    -22.68401958	     20.64645282	     48.61986660	     69.81952559	      8.10545566	     -0.84962713	     69.37184682	    -17.28310355	     31.37305552	     41.05295936	     65.19992249	     11.94294312	      1.01464393
    129.53000000	      0.15825829	     -4.29007623	     92.90257212	      0.39263451	      0.90856617	      0.37592557	     25.60995445	     -6.24854532	      0.98493959	      0.40092270	    -22.97117885	      4.07664583	      0.00000000	      0.00000000	     25.46732173	     -4.10680293	      0.20943823	      0.35360479	    -20.26006226	      4.27585687	      0.00000000	      0.00000000	    -10.67630095	      0.28658320	      0.07665022	    -19.82695849	      0.38115566	      0.08144086	    -17.54009482	      0.69679839	      0.08144086	    -12.20194435	      0.69679839	      0.06706895	     -9.91401306	      0.58440046	      0.06227831	     -6.10043836	      0.44391738	      0.05748767	    -76.25975002	      3.24188648	      0.42630554	      0.00000000	      0.00000000	     64.17471305	    -22.70629807	     20.49959235	     48.67139384	     69.80369566	      8.10940774	     -0.87691506	     70.39719112	    -17.22685927	     31.29232774	     41.10755321	     65.17511553	     11.97642485	      0.97328250
    129.54000000	      0.10249012	     -4.74766297	     92.92529294	      0.39249624	      0.90698958	      0.37798137	     26.60636460	     -6.33478593	      1.13907665	      0.41330451	    -23.68060423	      4.06246706	      0.00000000	      0.00000000	     26.42311712	     -4.00988834	      0.22873481	      0.36455695	    -20.88757452	      4.27993999	      0.00000000	      0.00000000	    -10.69444202	      0.28325821	      0.07258807	    -19.86064827	      0.37673342	      0.07712483	    -17.56989879	      0.68871401	      0.07712483	    -12.22267778	      0.68871401	      0.06351456	     -9.93085886	      0.57762014	      0.05897781	     -6.11080417	      0.43876696	      0.05444105	    -76.38932990	      3.20427350	      0.40371308	      0.00000000	      0.00000000	     65.82030565	    -22.58666275	     21.65654275	     47.10503278	     68.94967086	      9.30316816	     -1.66788966	     72.11232800	    -17.09996923	     33.43273787	     39.39636640	     62.67281991	     14.52064751	     -0.84868332
    129.55000000	      0.08726132	     -5.18746438	     92.93333910	      0.39236235	      0.90559673	      0.37969770	     27.41557575	     -6.37638059	      1.22659919	      0.42026162	    -24.07921686	      4.05470077	      0.00000000	      0.00000000	     27.19464440	     -3.95945345	      0.22028826	      0.37041216	    -21.22305360	      4.29492999	      0.00000000	      0.00000000	    -10.73773136	      0.28371773	      0.07577793	    -19.94104090	      0.37734459	      0.08051405	    -17.64101885	      0.68983130	      0.08051405	    -12.27215317	      0.68983130	      0.06630569	     -9.97105734	      0.57855720	      0.06156956	     -6.13553970	      0.43947877	      0.05683344	    -76.69854131	      3.20947174	      0.42145409	      0.00000000	      0.00000000	     67.09444482	    -22.54140546	     21.99361972	     46.54530059	     69.02691374	      9.41410179	     -1.61734028	     73.27379816	    -16.92364796	     33.75782667	     38.83458947	     62.63277498	     14.51927496	     -0.87420724
